# xmcd CD database file
#
# Track frame offsets:
#	150
#	14545
#	31422
#	47647
#	63357
#	79457
#	93530
#	111282
#	133550
#	153920
#	169090
#	184872
#	205415
#	224930
#	248625
#	277205
#
# Disc length: 4412 seconds
#
# Revision: 17
# Processed by: cddbd v1.5PL3 Copyright (c) Steve Scherf et al.
# Submitted via: CDex 1.51
#
DISCID=f2113a10
DTITLE=Pink - M!ssundaztood
DYEAR=2002
DGENRE=Pop
TTITLE0=Get the Party Started
TTITLE1=18 Wheeler
TTITLE2=Missundaztood
TTITLE3=Dear Diary
TTITLE4=Eventually
TTITLE5=Numb
TTITLE6=Just Like a Pill
TTITLE7=Family Portrait
TTITLE8=Misery (With Steven Tyler)
TTITLE9=Respect (With Scratch)
TTITLE10=Don't Let Me Get Me
TTITLE11=Gone to California
TTITLE12=Lonely Girl (With Linda Perry)
TTITLE13=My Vietnam
TTITLE14=Catch-22
TTITLE15=(Data Track)
EXTD=YEAR: 2002
EXTT0=
EXTT1=
EXTT2=
EXTT3=
EXTT4=
EXTT5=
EXTT6=
EXTT7=
EXTT8=
EXTT9=
EXTT10=
EXTT11=
EXTT12=
EXTT13=
EXTT14=
EXTT15=
PLAYORDER=
